#tb 0: 1/25
0,          0,          0,        1,   149760, 0xa5b11720
0,          1,          1,        1,   149760, 0x42e52c6e
0,          2,          2,        1,   149760, 0x27b15a30
0,          3,          3,        1,   149760, 0x4d759826
0,          4,          4,        1,   149760, 0xfb6daf0c
